<?xml version="1.0" encoding="UTF-8"?>
<svg id="katman_1" data-name="katman 1" xmlns="http://www.w3.org/2000/svg" viewBox="0 0 1024 1024">
  <defs>
    <style>
      .cls-1 {
        fill: #1a1a1a;
      }
    </style>
  </defs>
  <g>
    <path class="cls-1" d="M310.04,601.88c-.01-1.11-.02-1.61-.03-1.95-.01-.59-.02-.74.01-2.9l-.07-58.99.94-2.66,276.92-112.37-277.81-112.34v-63.42l429.59,173.55-.72,65.23-77.11,31.74.34.51c13.21,19.53,13.35,40.58.4,60.87-3.22,5.05-7.33,9.52-11.31,13.83-1.71,1.86-3.48,3.78-5.12,5.69l-.12.14v.18c0,1.46,2.76,4.18,6.67,7.88,1.47,1.39,2.86,2.71,3.46,3.46,19.01,23.64,21.49,48.27,6.99,69.36l-.35.51,76.27,30.63v65.92l-428.97-174.88Z"/>
    <path d="M310.5,247.98l428.59,173.15-.72,64.56-76.23,31.38-1.14.47.69,1.02c13.09,19.35,13.23,40.21.39,60.33-3.2,5.01-7.3,9.46-11.25,13.76-1.71,1.86-3.48,3.78-5.13,5.7l-.24.28v.37c0,1.66,2.57,4.22,6.82,8.24,1.46,1.38,2.84,2.68,3.42,3.41,18.86,23.45,21.33,47.87,6.97,68.76l-.71,1.03,1.16.47,75.38,30.27v64.84l-427.97-174.47c-.01-.89-.02-1.32-.03-1.63-.01-.59-.02-.73.01-2.9l-.07-58.89.84-2.37,275.57-111.82,2.29-.93-2.29-.93-276.35-111.75v-62.34M309.5,246.5v64.5l276.98,112-275.99,111.99-1.05,2.95.07,59.07c-.05,3.54,0,1.71.02,5.2l429.96,175.29v-67l-76.01-30.52c16.24-23.63,9.88-48.94-7.02-69.96-1.84-2.29-10.03-8.97-10.02-11.02,5.39-6.28,11.81-12.28,16.47-19.58,12.87-20.16,13.11-41.44-.4-61.42l76.85-31.63.73-65.91-430.6-173.96h0Z"/>
  </g>
  <g>
    <path class="cls-1" d="M281,485v-41c0-3.42,4.31-8.13,8.12-12.28,2.95-3.22,5.5-6,5.67-7.82.18-1.96-2.67-5-5.97-8.51-3.67-3.9-7.82-8.32-7.82-11.38v-42h45.75c1.69,2.42,1.28,6.45.91,10.01-.15,1.51-.3,2.93-.28,4.16.03,2.39.18,4.9.33,7.56.42,7.23.86,14.7-.95,20.86-1.41,4.79-5.35,8.96-9.16,12.99-1.66,1.76-3.22,3.41-4.55,5.09l-.21.26.16.29c1.7,3.09,4.04,5.79,6.3,8.39,3.91,4.5,7.6,8.75,8.25,14.87l.45,38.5h-46.99Z"/>
    <path d="M326.48,362.5c1.42,2.3,1.03,6.09.68,9.46-.16,1.52-.3,2.96-.29,4.22.03,2.4.18,4.92.33,7.59.42,7.18.86,14.61-.93,20.69-1.37,4.67-5.27,8.8-9.04,12.79-1.66,1.76-3.24,3.43-4.58,5.12l-.41.52.32.58c1.72,3.14,4.08,5.86,6.36,8.48,3.85,4.43,7.48,8.61,8.12,14.55l.44,38h-45.99v-40.5c0-3.23,4.43-8.06,7.99-11.95,3.48-3.8,5.62-6.22,5.8-8.12.19-2.08-2.19-4.74-6.1-8.9-3.42-3.64-7.68-8.17-7.68-11.04v-41.5h44.98M327,361.5h-46.5v42.5c0,5.99,14.15,16.03,13.79,19.84-.36,3.88-13.79,13.85-13.79,20.16v41.5h48l-.45-39.05c-1.05-9.97-10.09-15.23-14.61-23.46,4.39-5.53,11.74-11.25,13.8-18.25,2.51-8.53.75-19.69.64-28.57-.06-4.24,1.89-11.1-.87-14.67h0Z"/>
  </g>
  <g>
    <path class="cls-1" d="M689.5,604.28l-.32.27c-2.29,1.91-4.61,2.87-6.88,2.87h0c-4.69,0-7.99-4.14-8.47-8.15-.47-3.93,1.7-6.87,5.78-7.85.56-.14,1.13-.2,1.68-.2,1.86,0,3.36.76,4.67,1.43,1.05.53,1.95.99,2.86.99h0c.27,0,.52-.04.77-.12l.1-.03,49.2-44.05c.95-.84,1.92-1.32,2.66-1.32,1.08,0,1.38,1.11,1.43,2.14l-50.87,44.31c-2.1,1.65-2.81,4.6-1.87,7.87l.04.15,52.15,43.07-.7,2.01-52.24-43.38Z"/>
    <path d="M741.56,548.62c.53,0,.83.48.92,1.42l-50.67,44.13c-2.27,1.8-3.03,4.94-2.04,8.4l.09.3.24.2,51.76,42.75-.35,1-51.36-42.65-.64-.53-.64.53c-2.2,1.83-4.41,2.76-6.56,2.76-4.42,0-7.52-3.92-7.97-7.71-.43-3.65,1.59-6.38,5.4-7.3.52-.13,1.05-.19,1.56-.19,1.74,0,3.18.73,4.45,1.38,1.06.54,2.06,1.05,3.09,1.05.32,0,.63-.05.93-.15l.2-.07.15-.14,49.12-43.97c.85-.75,1.72-1.2,2.33-1.2M741.56,547.62c-.89,0-1.97.54-2.99,1.45l-49.13,43.98c-.2.07-.4.1-.61.1-1.86,0-4.1-2.43-7.54-2.43-.56,0-1.16.07-1.8.22-10.73,2.58-6.14,16.99,2.8,16.99,2.19,0,4.65-.87,7.2-2.99l52.48,43.57,1.05-3.02-52.3-43.19c-.75-2.63-.52-5.59,1.72-7.35l51.05-44.46c-.03-2.02-.83-2.86-1.94-2.86h0Z"/>
  </g>
  <g>
    <path class="cls-1" d="M365.23,410.73c20.23-4.16,22.24,27.6,1.78,25.77-14.76-1.32-15.2-23.02-1.78-25.77Z"/>
    <path d="M368.76,410.36c8.3,0,12.66,6.74,12.66,13.39,0-6.65-4.36-13.39-12.66-13.39h0ZM381.41,423.75c0,6.46-4.12,12.83-12.73,12.83,8.62,0,12.74-6.37,12.73-12.83h0Z"/>
  </g>
  <g>
    <path class="cls-1" d="M488.98,436.2c-7.49,0-11.42-5.73-12-11.41-.58-5.68,2.09-12.08,9.35-13.57,1.09-.22,2.16-.34,3.17-.34,7.18,0,11.23,5.56,12.06,11.08.8,5.29-1.17,11.49-7.37,13.39-1.82.56-3.57.84-5.21.84Z"/>
    <path d="M489.5,410.39v1c6.88,0,10.77,5.35,11.56,10.65.76,5.08-1.11,11.02-7.02,12.84-1.77.54-3.48.82-5.07.82-7.18,0-10.95-5.5-11.5-10.96-.55-5.46,2-11.6,8.95-13.03,1.05-.22,2.09-.33,3.07-.33v-1M489.5,410.39c-1.03,0-2.12.11-3.27.35-14.56,2.99-12.35,25.97,2.75,25.97,1.64,0,3.43-.27,5.36-.87,12.51-3.85,9.58-25.45-4.84-25.45h0Z"/>
  </g>
  <g>
    <path class="cls-1" d="M426.24,410.73c19.95-3.47,21.41,29.06-.18,25.7-14.22-2.21-12.69-23.46.18-25.7Z"/>
    <path d="M429.14,410.47c8.25,0,12.59,6.75,12.59,13.4,0-6.65-4.34-13.4-12.59-13.4h0ZM441.73,423.87c0,6.45-4.08,12.8-12.65,12.8,8.57,0,12.65-6.35,12.65-12.8h0Z"/>
  </g>
</svg>